<svg width="50" height="50" viewBox="0 0 50 50" fill="none" xmlns="http://www.w3.org/2000/svg">
<path d="M42.1875 14.0625H10.9375C10.5231 14.0625 10.1257 13.8979 9.83265 13.6049C9.53962 13.3118 9.375 12.9144 9.375 12.5C9.375 12.0856 9.53962 11.6882 9.83265 11.3951C10.1257 11.1021 10.5231 10.9375 10.9375 10.9375H37.5C37.9144 10.9375 38.3118 10.7729 38.6049 10.4799C38.8979 10.1868 39.0625 9.7894 39.0625 9.375C39.0625 8.9606 38.8979 8.56317 38.6049 8.27015C38.3118 7.97712 37.9144 7.8125 37.5 7.8125H10.9375C9.6943 7.8125 8.50201 8.30636 7.62294 9.18544C6.74386 10.0645 6.25 11.2568 6.25 12.5V37.5C6.25 38.7432 6.74386 39.9355 7.62294 40.8146C8.50201 41.6936 9.6943 42.1875 10.9375 42.1875H42.1875C43.0163 42.1875 43.8112 41.8583 44.3972 41.2722C44.9833 40.6862 45.3125 39.8913 45.3125 39.0625V17.1875C45.3125 16.3587 44.9833 15.5638 44.3972 14.9778C43.8112 14.3917 43.0163 14.0625 42.1875 14.0625ZM42.1875 39.0625H10.9375C10.5231 39.0625 10.1257 38.8979 9.83265 38.6049C9.53962 38.3118 9.375 37.9144 9.375 37.5V16.9199C9.87671 17.0978 10.4052 17.1883 10.9375 17.1875H42.1875V39.0625ZM32.8125 27.3438C32.8125 26.8802 32.95 26.4271 33.2075 26.0416C33.465 25.6562 33.8311 25.3558 34.2593 25.1784C34.6876 25.001 35.1588 24.9546 35.6135 25.045C36.0681 25.1355 36.4858 25.3587 36.8135 25.6865C37.1413 26.0142 37.3645 26.4319 37.455 26.8865C37.5454 27.3412 37.499 27.8124 37.3216 28.2407C37.1442 28.6689 36.8438 29.035 36.4584 29.2925C36.0729 29.55 35.6198 29.6875 35.1562 29.6875C34.5346 29.6875 33.9385 29.4406 33.499 29.001C33.0594 28.5615 32.8125 27.9654 32.8125 27.3438Z" fill="#0254BD"/>
</svg>
