<svg width="50" height="50" viewBox="0 0 50 50" fill="none" xmlns="http://www.w3.org/2000/svg">
<path d="M25 26.5625H24.7812C21.2187 26.0937 16.9375 24.4375 16.9375 19.125C16.9375 15.9375 19.0625 12.5 24.9687 12.5C30.875 12.5 32.8125 16.75 33 19C33.0625 19.875 32.4375 20.625 31.5625 20.6875C31.1542 20.7158 30.7507 20.5854 30.4363 20.3234C30.1218 20.0613 29.9207 19.688 29.875 19.2813C29.8125 18.6875 29.2812 15.6563 24.9375 15.6563C21.6875 15.6563 20.0312 16.8438 20.0312 19.1563C20.0312 20.3438 20.0313 22.8437 25.1563 23.5C25.5456 23.5604 25.8981 23.7649 26.1439 24.0729C26.3896 24.3809 26.5108 24.77 26.4832 25.163C26.4557 25.5561 26.2816 25.9245 25.9953 26.1953C25.709 26.466 25.3315 26.6194 24.9375 26.625L25 26.5625Z" fill="#00A949"/>
<path d="M24.9999 37.5001C19.0624 37.5001 17.1562 33.2501 16.9687 31.0001C16.9062 30.1251 17.5312 29.3751 18.4062 29.3126C19.2499 29.2501 19.9999 29.8751 20.0937 30.7188C20.1562 31.3126 20.6874 34.3438 25.0312 34.3438C28.2812 34.3438 29.9374 33.1563 29.9374 30.8438C29.9374 29.6563 29.9374 27.1563 24.8124 26.5001C24.4035 26.4433 24.0333 26.2279 23.7819 25.9005C23.5305 25.573 23.418 25.1598 23.4687 24.7501C23.5937 23.9063 24.3749 23.2813 25.2187 23.4063C28.7812 23.8751 33.0624 25.5313 33.0624 30.8438C33.0624 34.0313 30.9374 37.4688 25.0312 37.4688L24.9999 37.5001Z" fill="#00A949"/>
<path d="M25 46.875C12.9375 46.875 3.125 37.0625 3.125 25C3.125 12.9375 12.9375 3.125 25 3.125C37.0625 3.125 46.875 12.9375 46.875 25C46.875 37.0625 37.0625 46.875 25 46.875ZM25 6.25C14.6563 6.25 6.25 14.6563 6.25 25C6.25 35.3437 14.6563 43.75 25 43.75C35.3437 43.75 43.75 35.3437 43.75 25C43.75 14.6563 35.3437 6.25 25 6.25Z" fill="#00A949"/>
<path d="M25 40.625C24.125 40.625 23.4375 39.9375 23.4375 39.0625V10.9375C23.4375 10.0625 24.125 9.375 25 9.375C25.875 9.375 26.5625 10.0625 26.5625 10.9375V39.0625C26.5625 39.9375 25.875 40.625 25 40.625Z" fill="#00A949"/>
</svg>
