<svg width="20" height="20" viewBox="0 0 20 20" fill="none" xmlns="http://www.w3.org/2000/svg">
<g id="ic:round-search">
<path id="Vector" d="M12.9167 11.6667H12.2583L12.025 11.4417C12.5458 10.8366 12.9264 10.124 13.1396 9.35468C13.3528 8.58538 13.3934 7.77846 13.2583 6.99167C12.8667 4.675 10.9333 2.825 8.60001 2.54167C7.77969 2.43789 6.9465 2.52314 6.1642 2.79091C5.38189 3.05867 4.67121 3.50185 4.08654 4.08653C3.50186 4.6712 3.05868 5.38188 2.79092 6.16419C2.52315 6.94649 2.4379 7.77968 2.54168 8.6C2.82501 10.9333 4.67501 12.8667 6.99168 13.2583C7.77847 13.3934 8.58539 13.3528 9.35469 13.1396C10.124 12.9264 10.8366 12.5458 11.4417 12.025L11.6667 12.2583V12.9167L15.2083 16.4583C15.55 16.8 16.1083 16.8 16.45 16.4583C16.7917 16.1167 16.7917 15.5583 16.45 15.2167L12.9167 11.6667ZM7.91668 11.6667C5.84168 11.6667 4.16668 9.99167 4.16668 7.91667C4.16668 5.84167 5.84168 4.16667 7.91668 4.16667C9.99168 4.16667 11.6667 5.84167 11.6667 7.91667C11.6667 9.99167 9.99168 11.6667 7.91668 11.6667Z" fill="#A4A4A4"/>
</g>
</svg>
