<svg width="48" height="50" viewBox="0 0 48 50" fill="none" xmlns="http://www.w3.org/2000/svg">
<path d="M39.2499 48.2142H8.74994C7.74199 48.2203 6.74415 48.013 5.82203 47.606C4.89991 47.1989 4.07438 46.6013 3.39971 45.8524C2.72504 45.1036 2.21651 44.2204 1.90755 43.2609C1.59859 42.3015 1.49619 41.2875 1.60708 40.2856L3.99994 19.2499C4.09704 18.3724 4.51578 17.5619 5.17532 16.9749C5.83486 16.3879 6.68846 16.066 7.57137 16.0714H40.4285C41.3114 16.066 42.165 16.3879 42.8246 16.9749C43.4841 17.5619 43.9028 18.3724 43.9999 19.2499L46.3214 40.2856C46.4316 41.2815 46.3311 42.2894 46.0263 43.2439C45.7216 44.1984 45.2195 45.0781 44.5525 45.8258C43.8856 46.5735 43.0689 47.1726 42.1553 47.5841C41.2418 47.9956 40.2519 48.2103 39.2499 48.2142Z" stroke="#D80008" stroke-width="3" stroke-linecap="round" stroke-linejoin="round"/>
<path d="M9.71411 16.0714C9.71411 12.2826 11.2192 8.64892 13.8983 5.96983C16.5774 3.29074 20.211 1.78564 23.9998 1.78564C27.7886 1.78564 31.4223 3.29074 34.1014 5.96983C36.7804 8.64892 38.2855 12.2826 38.2855 16.0714M15.0713 26.7856H32.9284" stroke="#D80008" stroke-width="3" stroke-linecap="round" stroke-linejoin="round"/>
</svg>
